<?xml version="1.0" encoding="utf-8"?>
<!-- Generator: Adobe Illustrator 29.8.3, SVG Export Plug-In . SVG Version: 9.03 Build 0)  -->
<svg version="1.0" id="Capa_1" xmlns="http://www.w3.org/2000/svg" xmlns:xlink="http://www.w3.org/1999/xlink" x="0px" y="0px"
	 viewBox="0 0 260.74 33.69" style="enable-background:new 0 0 260.74 33.69;" xml:space="preserve">
<style type="text/css">
	.st0{fill:#FFFFFF;}
</style>
<g>
	<path class="st0" d="M41.52,18.08h7.28l-2.81-9.77c-0.38,0.08-1.7-0.13-1.88,0.12L41.52,18.08z M61.71,33.68h-8.61l-2.32-8.64
		L39.6,25.03l-2.44,8.65h-8.33l9.93-33.63L51.51,0l0.33,0.12L61.71,33.68z"/>
	<path class="st0" d="M86.88,14.82h7.34c0.46,0,1.66-0.43,2.08-0.69c1.9-1.2,1.79-4.91-0.29-5.95c-0.48-0.24-1.82-0.54-2.34-0.54
		h-6.79V14.82z M86.88,22.34v11.34h-8.72V0.01L95.54,0c4.84,0.36,9.18,2.57,10.5,7.61c1.21,4.61,0.09,10.01-3.99,12.71
		C97.55,23.3,91.95,22.1,86.88,22.34"/>
	<path class="st0" d="M208.82,0.01l6.25,25.38c0.44-0.1,1.81,0.2,2.01-0.2l6.09-25.18h8.94l-9.16,33.67L209,33.69l-9.34-33.68
		H208.82z"/>
	<polygon class="st0" points="150.88,0.01 150.88,7.75 140.95,7.75 140.95,33.68 132.34,33.68 132.34,7.75 122.41,7.75 122.41,0.01 
			"/>
	<rect x="170.97" y="0.01" class="st0" width="8.72" height="33.68"/>
	<path class="st0" d="M5.52,10.59c7.64-0.73,9.31,10.7,1.99,12.36C-1.11,24.89-3.01,11.41,5.52,10.59"/>
	<path class="st0" d="M254.16,10.59c8.34-0.66,8.92,12.16,0.85,12.54C246.93,23.51,246.24,11.22,254.16,10.59"/>
</g>
</svg>
