<?xml version="1.0" encoding="utf-8"?>
<!-- Generator: Adobe Illustrator 29.8.3, SVG Export Plug-In . SVG Version: 9.03 Build 0)  -->
<svg version="1.0" id="Capa_1" xmlns="http://www.w3.org/2000/svg" xmlns:xlink="http://www.w3.org/1999/xlink" x="0px" y="0px"
	 viewBox="0 0 138.3 62.63" style="enable-background:new 0 0 138.3 62.63;" xml:space="preserve">
<style type="text/css">
	.st0{fill:#FFFFFF;}
</style>
<g>
	<path class="st0" d="M138.3,59.14c-1.69-0.22-4.7,0.48-6.13-0.43c-0.5-0.32-1.31-1.34-1.31-1.94v-6.56h2.3v6.29
		c0,0.14,0.51,0.82,0.67,0.95c1.04,0.87,3.17,0.31,4.47,0.47V59.14z"/>
	<path class="st0" d="M59.19,3.48c2.78-0.33,4.87,0.65,6.66,2.73l3.5,3.91l-5.08,4.81c-1.76-1.06-3.01-4.4-5.5-2.81L48.13,22.83
		c-0.62,0.65-0.94,1.48-0.4,2.3l8.22,8.54c-0.16,2.3,0.32,5.16,0.02,7.4c-0.2,1.5-1.47,1.63-2.56,0.83L40.7,28.65
		c-2.21-2.75-2.29-6.05-0.01-8.79c4.98-4.34,9.46-10.29,14.47-14.46C56.19,4.54,57.86,3.64,59.19,3.48z"/>
	<path class="st0" d="M80.55,3.48c1.9-0.16,3.73,0.57,5.17,1.78c4.52,3.79,8.56,9.11,13.05,13.04c0.98,1.13-0.47,1.81-1.49,1.89
		l-7,0.11l-8.01-7.94c-1.11-0.86-1.89-0.95-2.97-0.01c-3.56,3.09-6.77,7.44-10.34,10.62c-1.1,1.44-0.49,2.05,0.53,3.22l-5.19,5.22
		c-2.82-2.54-5.05-5.11-3.78-9.18c0.82-2.64,2.77-3.99,4.59-5.82c3.72-3.72,7.43-7.44,11.15-11.16C77.49,4.35,78.99,3.61,80.55,3.48
		z"/>
	<path class="st0" d="M90.14,28.48l8.07-0.02c0.82,0.12,1.13,0.58,0.86,1.37L85.79,43.32c-1.82,1.56-3.74,2.38-6.18,1.85
		c-3.5-0.76-5.36-4.25-7.8-6.53l4.92-5.18c1.38,1.05,3.14,4.23,5.16,3.13L90.14,28.48z"/>
	<path class="st0" d="M76.61,17.37c3.62,2.7,5.92,7.33,2.69,11.35c-4.41,3.92-8.35,9.24-12.84,12.98c-1.04,0.87-1.94,1.05-2.37-0.47
		l0.07-7.77l8.23-8.12c0.77-0.98,0.09-2.2-0.73-2.9L76.61,17.37z"/>
	<polygon class="st0" points="109.37,56.84 109.37,50.08 111.47,50.08 111.67,50.28 111.67,59.14 108.56,59.14 104.51,52.92 
		104.51,59.14 102.21,59.14 102.21,50.08 104.98,50.08 	"/>
	<polygon class="st0" points="65.44,56.84 65.44,50.08 67.53,50.08 67.74,50.28 67.74,59.14 64.63,59.14 60.57,52.92 60.57,59.14 
		58.27,59.14 58.27,50.08 61.04,50.08 	"/>
	<polygon class="st0" points="89.5,56.84 89.5,50.08 91.8,50.08 91.8,59.14 88.69,59.14 84.63,52.92 84.63,59.14 82.34,59.14 
		82.34,50.08 85.11,50.08 	"/>
	<path class="st0" d="M17.24,50.08c2.35,0.39,3.11,3.59,1.22,5l-1.02,0.61l2.3,3.45h-2.37l-2.22-3.32
		c-0.36-0.34-0.91-0.15-1.36-0.19l0.56-1.19c1.28,0.12,3.61-0.05,3.03-1.92c-0.07-0.22-0.63-0.8-0.82-0.8h-3.72v7.44h-2.03v-9.06
		H17.24z"/>
	<path class="st0" d="M50.4,50.25c1.18-0.19,4.04-0.15,5.08,0.4c1.92,1.01,1.89,3.4,1.71,5.31c-0.31,3.28-3.65,3.44-6.28,3.18
		c-1.36-0.14-3.01-1.16-3.18-2.63c-0.09-0.8-0.1-3.24,0.06-4C48.02,51.43,49.36,50.41,50.4,50.25z M51.34,51.73
		c-0.62,0.11-1.42,0.81-1.56,1.42c-0.1,0.45-0.09,2.87,0.03,3.29c0.53,1.78,4.06,1.84,5,0.39c0.49-0.75,0.51-3.22,0.1-4.01
		C54.29,51.6,52.55,51.51,51.34,51.73z"/>
	<path class="st0" d="M101.13,50.08v1.76H97c-0.75,0-1.86,1.21-1.69,2.03h5.81v1.62h-5.81c-0.02,3.2,3.66,1.63,5.69,2.09l0.13,1.56
		h-4.66c-1.76,0-3.51-2.24-3.7-3.87c-0.29-2.43,1.48-5.19,4.11-5.19H101.13z"/>
	<path class="st0" d="M130.33,59.14h-2.16l-0.74-2.03h-2.64l0.54-1.56l1.49-0.06c0.1-0.1-0.9-2.3-1.05-2.53
		c-0.08-0.13,0.02-0.24-0.3-0.17l-2.3,6.35h-2.43l3.17-7.71c0.97-1.78,2.46-1.56,3.39,0.13c0.82,1.5,2.49,5.53,2.97,7.17
		C130.3,58.87,130.36,58.98,130.33,59.14z"/>
	<path class="st0" d="M38.94,59.14h-2.1l-0.74-2.03h-2.84l0.56-1.6l1.6-0.02c-0.44-0.77-0.7-1.79-1.18-2.53
		c-0.08-0.13,0.01-0.24-0.3-0.17l-2.3,6.35h-2.3c-0.03-0.15,0.02-0.27,0.06-0.41c0.49-1.66,2.16-5.78,2.99-7.28
		c0.6-1.08,1.58-1.69,2.69-0.83C36.82,53.16,37.57,56.37,38.94,59.14z"/>
	<path class="st0" d="M9.61,59.14h-2.1l-0.74-2.03H3.93l0.56-1.6l1.6-0.02l-1.22-2.84l-0.2,0.14l-2.37,6.35h-2.3
		c-0.03-0.15,0.02-0.27,0.06-0.41c0.41-1.41,2.41-6.38,3.15-7.53c0.87-1.34,2.15-1.3,3.03,0L9.61,59.14z"/>
	<path class="st0" d="M46.65,50.21v1.62h-3.72c-0.48,0-1.48,0.73-1.63,1.21c-0.16,0.52-0.12,3.22,0.11,3.69
		c0.78,1.62,3.73,0.44,5.11,0.83l0.13,1.56h-4.53c-0.08,0-0.96-0.31-1.11-0.38c-0.92-0.43-1.71-1.35-1.8-2.39
		c-0.07-0.78-0.1-3.45,0.11-4.09c0.21-0.63,0.97-1.39,1.56-1.68c0.13-0.06,0.92-0.38,0.97-0.38H46.65z"/>
	<path class="st0" d="M28.13,50.21v1.62h-3.72c-0.52,0-1.39,0.75-1.56,1.28c-0.23,0.69-0.22,2.8,0.05,3.48
		c0.19,0.47,0.88,1.06,1.38,1.06h3.85v1.49h-4.39c-0.11,0-1.02-0.34-1.2-0.42c-1.13-0.53-1.74-1.51-1.85-2.75
		c-0.14-1.68-0.22-3.88,1.23-4.99c0.26-0.2,1.3-0.76,1.54-0.76H28.13z"/>
	<polygon class="st0" points="77.6,50.08 77.6,51.7 74.43,51.7 74.22,51.9 74.22,59.14 72.2,59.14 72.2,51.9 71.99,51.7 68.82,51.7 
		68.82,50.08 	"/>
	<polygon class="st0" points="121.67,50.08 121.67,51.7 118.5,51.7 118.29,51.9 118.29,59.14 116.27,59.14 116.27,51.7 113.02,51.7 
		112.89,50.08 	"/>
	<rect x="78.82" y="50.08" class="st0" width="2.16" height="9.06"/>
</g>
</svg>
