<?xml version="1.0" encoding="utf-8"?>
<!-- Generator: Adobe Illustrator 29.8.3, SVG Export Plug-In . SVG Version: 9.03 Build 0)  -->
<svg version="1.0" id="Capa_1" xmlns="http://www.w3.org/2000/svg" xmlns:xlink="http://www.w3.org/1999/xlink" x="0px" y="0px"
	 viewBox="0 0 233.18 70.73" style="enable-background:new 0 0 233.18 70.73;" xml:space="preserve">
<style type="text/css">
	.st0{fill:#FFFFFF;}
</style>
<g>
	<path class="st0" d="M20.54,0l9.87,9.85c6.42-1.82,13.44-1.12,19.52,1.59c9.74,4.36,16.81,14.46,16.52,25.48h-6.94
		c0.25-12.27-11.19-22.03-22.95-21.04c-0.06,0.24,0.1,0.27,0.2,0.41c0.83,1.1,2.29,2.2,3.28,3.18l0.11,0.39l-6.59,6.31l-7.11-7.01
		c-0.16-0.06-0.28-0.02-0.43,0.05c-0.64,0.3-2.04,1.45-2.61,1.96c-1.51,1.34-2.92,3.01-4.05,4.69l7.31,7.45l-6.62,6.32l-0.31-0.05
		l-3.6-3.6c-0.54,9.65,5.92,18.34,14.82,21.24c1.29,0.42,3.26,0.89,4.6,1.02c0.75,0.07,1.73-0.21,2.34,0.21v6.52
		c0,0.39-0.95,0.08-1.14,0.07C18.73,64.41,6.42,48.71,9.88,30.63c0.05-0.27,0.3-0.56,0.24-0.8L0,19.73l6.71-6.42l7.61,7.45
		c2.01-2.49,4.17-4.93,6.89-6.65l-7.74-7.94L19.74,0H20.54z"/>
	<path class="st0" d="M123.09,49.76c-6.71,1.12-6.2,16.74,1.85,15.34c4.85-0.84,5.17-11,2.22-14.01
		C126.11,50.02,124.56,49.52,123.09,49.76 M125.92,70.73h-4.41c-1.1-0.75-2.55-0.74-3.83-1.29c-10.22-4.4-9.33-21.19,1.56-24.43
		c15.87-4.72,24.3,13.83,12.17,23.6L125.92,70.73z"/>
	<path class="st0" d="M166.45,70.73c-1.83-0.77-3.61-0.9-5.42-1.92c-7.17-4.02-7.78-15.66-1.75-20.95
		c4.31-3.78,11.04-4.42,16.29-2.48l-1.11,5.31l-0.42,0.12c-6.02-2.38-12.37,1.44-10.78,8.42c1.25,5.47,6.85,6.31,11.45,4.76
		l0.81,5.59l-4.39,1.14H166.45z"/>
	<path class="st0" d="M200.92,44.93c0.11,0.49-0.09,2.98,0.42,3.08c1.05-0.55,1.73-1.59,2.76-2.23c4.12-2.55,9.87-1.89,12.12,2.78
		c0.89-0.52,1.26-1.39,2.09-2.07c4.96-4.04,12.04-2.51,14.16,3.78c0.11,0.34,0.71,2.24,0.71,2.36v17.53h-7.31l-0.41-0.42V53.76
		c0-0.09-0.7-1.5-0.83-1.68c-1.26-1.84-3.27-2.27-5.1-0.98c-1.57,1.11-1.94,2.79-2.08,4.62c-0.34,4.56,0.19,9.31,0.17,13.88
		c0,0.33-0.02,0.36-0.3,0.57h-7.31V54.04c0-1.42-2.24-3.81-3.72-3.8c-1.66,0.01-4.27,2.49-4.27,4.08v15.85h-7.03l-0.41-0.42V45.91
		c0-0.14-0.44-0.59-0.28-0.98H200.92z"/>
	<polygon class="st0" points="84.01,35.39 84.01,48.58 97.52,48.58 97.52,35.39 105.24,35.39 105.24,70.17 97.52,70.17 97.52,55.59 
		84.42,55.59 84.01,56.01 84.01,70.17 76.57,70.17 76.57,35.39 	"/>
	<path class="st0" d="M149.91,33.43v36.74h-7.31l-0.36-0.42c-0.01-0.11,0.22-0.21,0.22-0.28V33.43H149.91z"/>
	<rect x="180.24" y="44.93" class="st0" width="7.72" height="25.24"/>
	<path class="st0" d="M180.88,40.36c-1.65-1.89-0.81-5.76,1.77-6.3c3.04-0.63,5.88,0.72,5.53,4.2
		C187.84,41.61,182.84,42.6,180.88,40.36"/>
</g>
</svg>
