<?xml version="1.0" encoding="utf-8"?>
<!-- Generator: Adobe Illustrator 29.8.3, SVG Export Plug-In . SVG Version: 9.03 Build 0)  -->
<svg version="1.0" id="Capa_1" xmlns="http://www.w3.org/2000/svg" xmlns:xlink="http://www.w3.org/1999/xlink" x="0px" y="0px"
	 viewBox="0 0 138.3 85.42" style="enable-background:new 0 0 138.3 85.42;" xml:space="preserve">
<style type="text/css">
	.st0{fill:#FFFFFF;}
</style>
<g>
	<polygon class="st0" points="46.38,33.33 58.86,50.99 46.38,50.99 	"/>
	<polygon class="st0" points="64.34,8.07 46.38,20.55 46.38,8.07 	"/>
	<polygon class="st0" points="89.3,8.07 89.3,25.72 76.82,8.22 	"/>
	<polygon class="st0" points="89.3,50.99 71.64,50.99 89.3,38.51 	"/>
	<path class="st0" d="M97.21,75.95l-2.13,0c0.18-4-0.55-7.9,0-11.87c0.76,0.41,1.36,0.41,2.12,0l0,2.74l2.26-2.45
		c2.49-1.04,3.71,0.26,4.58,2.45c0.87-1.96,2.67-3.58,4.95-2.51c0.39,0.18,1.29,1.51,1.29,1.75v9.89h-2.13v-8.98
		c0-0.13-0.71-1.13-0.91-1.23c-1.54-0.77-3.35,1.95-3.35,3.05v7.15h-2.43v-9.28c0-1.07-1.7-1.22-2.55-0.73
		c-0.8,0.46-1.71,2.65-1.71,3.46V75.95z"/>
	
		<rect x="55.85" y="33.39" transform="matrix(0.7072 -0.707 0.707 0.7072 -8.9947 53.3545)" class="st0" width="8.14" height="8.3"/>
	
		<rect x="55.8" y="17.31" transform="matrix(0.7071 -0.7071 0.7071 0.7071 2.3616 48.6254)" class="st0" width="8.16" height="8.31"/>
	<rect x="71.9" y="33.59" transform="matrix(0.7071 -0.7071 0.7071 0.7071 -4.3519 64.6838)" class="st0" width="8" height="8"/>
	
		<rect x="63.78" y="41.59" transform="matrix(0.7071 -0.7071 0.7071 0.7071 -12.3526 61.3687)" class="st0" width="8.25" height="8"/>
	<path class="st0" d="M71.46,31.63c-0.59,0.58-3.08,3.59-3.58,3.51l-5.35-5.57l5.57-5.35l5.35,5.35
		C73.56,30.2,71.89,31.21,71.46,31.63z"/>
	<path class="st0" d="M80.97,27.14c0.63-0.67,2.28-3.16,3.24-2.9l5.38,5.29l-5.63,5.63l-5.28-5.36
		C78.79,28.45,80.27,27.89,80.97,27.14z"/>
	
		<rect x="63.91" y="9.35" transform="matrix(0.7113 -0.7029 0.7029 0.7113 10.1277 51.6464)" class="st0" width="8.03" height="8.29"/>
	
		<rect x="47.71" y="25.49" transform="matrix(0.7045 -0.7097 0.7097 0.7045 -5.6564 45.5497)" class="st0" width="8.31" height="8.16"/>
	
		<rect x="71.96" y="17.45" transform="matrix(0.707 -0.7072 0.7072 0.707 7.0366 60.0153)" class="st0" width="7.99" height="8.13"/>
	<path class="st0" d="M15.03,64.08c0.76,0.41,1.36,0.41,2.13,0l0,2.74l2.45-2.27c1.52-1.3,4.86-0.14,4.86,1.81v9.59h-2.13v-8.37
		c0-0.73-0.78-1.96-1.7-1.97c-1.99-0.02-3.48,3.37-3.48,5.01v5.33h-2.13V64.08z"/>
	<path class="st0" d="M91.73,75.95l-2.13,0l-0.15-1.53c-0.65-0.14-0.43,0.57-0.94,0.88c-4.72,2.88-7.79-2.79-3.69-4.89
		c1.31-0.67,3.32-0.86,4.78-0.85c0.85-4.06-2.64-7.52-4-2.17l-2.09,0.04c-0.74-3.56,5.48-4.26,7.29-2.57
		c0.18,0.17,0.93,1.42,0.93,1.51V75.95z M89.16,70.24c-1.53,0.24-4.14,0.96-3.77,3.05C86.03,76.91,91.54,73,89.16,70.24z"/>
	<path class="st0" d="M11.99,57.99v17.5c-0.61,0.71-2.13,0.71-2.74,0V58.44C9.9,57.65,11.07,58.07,11.99,57.99z"/>
	<path class="st0" d="M44.55,68.64h-7.3c0.05,4.14,2.46,7.64,7,6.09l-0.2,0.92c-4.37,1.35-8.52,0.06-8.94-5.01
		c-0.37-4.44,1.69-7.46,6.49-6.49C43.89,64.61,44.15,66.74,44.55,68.64z M39.6,64.74c-1.23,0.16-2.23,1.44-2.21,2.68l4.74,0.16
		c0.45-0.33,0.16-0.38,0.08-0.69C41.9,65.66,41.04,64.55,39.6,64.74z"/>
	<path class="st0" d="M66.77,68.64c-0.1,3.97,2.3,7.63,6.69,6.09l-0.18,0.94c-6.09,1.72-9.48-1.53-8.62-7.76
		c0.75-5.47,9.83-5.3,9.1,0.73H66.77z M71.64,67.73c0.12-4.16-4.66-3.79-4.87,0H71.64z"/>
	<path class="st0" d="M28.12,65.29l-1.83,0l0-1.22l1.54,0.18l0.35-2.85l2.37-1.28l0.14,3.98l2.9,0.13l0,1.06l-3.05,0v8.67
		c0,1.04,1.96,1.18,2.74,1.07l0,0.9c-1.77,0.58-5.17,0.13-5.17-2.27V65.29z"/>
	<path class="st0" d="M62.82,67.73l-2.09-0.04c-0.43-1.24-0.35-2.8-2.02-2.98c-4.91,2.1-1.78,12.63,4.11,10.02l-0.02,0.89
		c-5.8,1.77-9.41-1-8.82-7.14C54.5,62.94,62.56,62.12,62.82,67.73z"/>
	<path class="st0" d="M127.04,67.73l-2.43,0c0.17-1.45-0.45-2.76-1.98-3.02c-1.08,0.1-1.47,0.91-1.82,1.81
		c-1.47,3.84,0.95,10.23,5.92,8.21l0.01,0.76c-6.14,2.73-10.64-3.01-8.23-8.84C120.1,62.79,127,63.01,127.04,67.73z"/>
	<path class="st0" d="M46.38,64.38l2.44,0l0.15,2.74c0.89-1.27,1.62-3.08,3.5-3.04l0,2.43c-1.22-0.4-3.65,1.09-3.65,2.28v7.15h-2.43
		V64.38z"/>
	<path class="st0" d="M75.9,64.38l2.13-0.3c0.24,0.34-0.45,2.97,0.61,3.35c-0.47-1.13,2.7-4,3.35-3.35l0,2.43
		c-1.89-0.37-3.96,1.33-3.96,3.2v6.24H75.9V64.38z"/>
	<polygon class="st0" points="115.78,75.95 113.34,75.95 113.34,64.38 115.78,64.08 	"/>
	
		<rect x="113.34" y="57.98" transform="matrix(1.448616e-04 -1 1 1.448616e-04 55.3373 173.7556)" class="st0" width="2.45" height="2.45"/>
</g>
</svg>
