<?xml version="1.0" encoding="utf-8"?>
<!-- Generator: Adobe Illustrator 29.8.3, SVG Export Plug-In . SVG Version: 9.03 Build 0)  -->
<svg version="1.0" id="Capa_1" xmlns="http://www.w3.org/2000/svg" xmlns:xlink="http://www.w3.org/1999/xlink" x="0px" y="0px"
	 viewBox="0 0 266.96 57.17" style="enable-background:new 0 0 266.96 57.17;" xml:space="preserve">
<style type="text/css">
	.st0{fill:#FFFFFF;}
</style>
<g>
	<path class="st0" d="M214.97,13.99c-7.1,1.3-6.84,16.74,2.58,15.2C225.18,27.95,223.4,12.45,214.97,13.99 M231.73,11.92
		c1.83,3.95-2.89,2.03-4.61,4.24c3.86,7.39-0.83,14.97-8.64,16.04c-2.42,0.33-4.77-0.46-6.74,1.64c-1.45,1.54-0.43,2.65,1.23,3.11
		c5.07,1.41,18.91-1.48,19.81,6.38c1.32,11.55-15.24,15.43-23.75,13.28c-6.84-1.73-8.48-9.23-1.56-12.15
		c0.95-0.4,1.54-0.71,2.57-0.27c-0.1,1.61-1.42,1.79-1.64,3.6c-1.07,8.69,16.83,6.98,18.77,1.4c2.9-8.34-10.58-6.29-14.91-6.75
		c-2.94-0.31-5.84-1.66-6.67-4.78c-0.84-3.16,4.53-4.02,6.13-6.05c-10.99-2.86-9.79-16.72,0.6-19.98c4.93-1.55,6.24-0.18,10.61,0.24
		C224.37,12,231.24,11.6,231.73,11.92"/>
	<path class="st0" d="M55.87,40.47c0.13,0.9-0.12,2.17-1.14,2.35c-4.08-0.4-9.11,0.54-13.05,0.02c-0.46-0.06-0.87-0.08-1.19-0.49
		l-0.26-1.86c1.94-0.57,3.81-1.05,4.22-3.35c0.53-2.98,0.4-13.34,0.08-16.58c-0.36-3.7-2.77-6.06-6.5-5.97
		c-1.35,0.03-6.3,1.98-6.54,3.24l0.08,20.69c0,1.85,4.5,1.36,4.91,1.97c0.09,1.24-0.11,2.21-1.46,2.37c-2.54,0.3-10.25,0.33-12.74,0
		c-1.43-0.19-1.67-0.96-1.45-2.36c4.08-0.63,4.42-2.98,4.66-6.66c0.24-3.7,0.25-9.26,0-12.96c-0.26-3.78-0.48-5.41-4.72-5.4
		l-0.17-2.26c0.23-0.33,3.96-0.67,4.82-0.88c0.87-0.21,4.15-1.49,4.53-1.41c1.47,0.29,1.01,3.67,1.72,3.67
		c2.6-1.79,5.46-3.83,8.7-3.76c15.24,0.37,8.7,17.71,10.34,27.59C51.27,40.24,54.42,39.85,55.87,40.47"/>
	<path class="st0" d="M124.78,14.59c3.24-2.01,5.8-4.07,9.82-3.7c14.24,1.31,7.74,17.6,9.31,27.27c0.49,2.16,3.67,1.66,5.25,2.31
		l-0.64,2.19c-0.58,0.35-12.15,0.35-13.56,0.19c-1.34-0.16-1.56-1.13-1.45-2.37c1.94-0.54,3.83-1.05,4.24-3.34
		c0.53-2.98,0.4-13.34,0.08-16.58c-0.74-7.52-8.38-6.87-12.97-3.17l0.01,21.13c-0.01,1.85,4.51,1.36,4.89,1.98
		c0.23,1.37-0.01,2.17-1.45,2.36c-2.52,0.33-10.18,0.3-12.74,0c-0.37-0.05-0.73-0.02-0.99-0.35l-0.47-2.02
		c1.78-0.33,3.65-1.04,4.24-3c0.84-2.82,0.68-13.91,0.43-17.28c-0.28-3.64-0.95-4.65-4.71-4.73l-0.27-2.02l0.5-0.51
		c1.42,0.01,2.77-0.22,4.14-0.55C122.09,11.49,124.22,9.01,124.78,14.59"/>
	<path class="st0" d="M250.51,14.24c-1.13,0.35-4.91,0.75-5.3,1.93c-0.42,1.26,1.19,4.89,1.71,6.32c1.53,4.23,3.52,8.3,5.1,12.5
		c1.53-4.17,6.97-14.4,6.18-18.53c-0.36-1.89-3.4-1.55-3.86-2.19c-0.62-0.87,0.17-2.28,1.34-2.42c1.7-0.21,8.5-0.27,10.04,0.03
		c1.01,0.19,1.48,1.21,1.15,2.16c-0.17,0.5-4.16,1.35-4.14,3.27l-14.27,39.74l-6.41,0.07l-0.53-2.37c1.52-0.24,3.44-0.88,4.27-2.29
		c0.69-1.17,3.15-7.61,3.5-9.03c0.12-0.48,0.32-0.93,0.22-1.44l-10.97-23.9c-0.54-0.63-0.98-1.85-1.51-2.38
		c-1.24-1.24-4.33-1.37-1.4-3.86l14.4,0.33L250.51,14.24z"/>
	<path class="st0" d="M155.88,24.12l13.06-1.85c1.14-3.06-1.25-7.5-4.56-7.98C158.02,13.35,155.92,18.59,155.88,24.12 M175.61,25.81
		h-19.73c-0.26,11.65,9.42,15.45,18.96,10.94l0.74,0.51c0.79,2.77-4.69,4.82-6.66,5.4c-21.8,6.42-25.2-25.7-8.88-31.14
		C169.99,8.19,176.06,16.41,175.61,25.81"/>
	<path class="st0" d="M104.38,22.41c0.25-5.35-2.2-8.92-7.82-8.13c-4.66,0.66-5.5,5.72-5.83,9.68l0.7,0.43L104.38,22.41z
		 M110.4,25.81H90.67c0.42,3.35,0.67,6.48,2.84,9.19c4.27,5.32,11.38,4.04,16.89,1.7c0.9,4.05-6.9,6.27-9.85,6.48
		C78.4,44.75,81.6,10.92,99.24,10.88C107.23,10.86,110.87,18.58,110.4,25.81"/>
	<path class="st0" d="M70.61,35.68l5.9-18.6c0.51-2.95-5.97-1.78-3.4-4.88c0.66-0.79,9.49-0.14,11.16-0.29l0.35,2.11
		c-0.18,0.53-1.52,0.77-2.15,1.23c-2.73,2.02-7.38,20.51-10.06,25.14c-1.09,1.88-2.22,2.54-4.28,3.11L56.74,17.3
		c-0.69-1.83-2.03-2.3-3.49-3.27l0.63-2.01c1.91-0.03,13.12-0.61,13.9,0.17c0.39,0.39,0.71,1.59,0.36,2.07
		c-0.48,0.65-5.09,0.4-5.19,2.51L70.61,35.68z"/>
	<path class="st0" d="M15.07,0l0.34,2.31c-2.5,0.6-3.82,1.22-4.29,3.97c-1.12,6.59-0.84,21.89-0.38,28.9
		c0.08,1.18,0.4,2.38,0.51,3.56l5.53,1.35l-0.66,2.56L0.95,42.84L0.06,40.1c2.94,0,4.39-1.73,4.68-4.6
		c0.95-9.53-0.71-20.59,0.02-30.29c0.02-0.77-0.75-1.64-1.38-2C1.5,2.17-0.92,3.42,0.35,0.16L15.07,0z"/>
	<path class="st0" d="M189.32,15.61c3.86-3.51,6.92-6.89,12.01-2.87c3.3,2.6-2.01,8.7-3.67,7.49c-0.28-0.21-0.81-2.19-1.51-2.89
		c-2.38-2.37-6.22,0.29-6.75,2.94c-0.56,2.79-0.35,13.41-0.09,16.6c0.34,4.14,3.63,2.52,6.68,3.58l-0.65,2.2l-15.51,0.08
		c-0.75-0.31-0.99-1.51-0.85-2.26c2.49-0.71,4.27-1.47,4.61-4.32c0.47-3.92,0.38-12.61,0.05-16.64c-0.27-3.34-1.41-3.99-4.65-3.95
		c-1.63-3.39,1.9-2.64,4.24-3.24c0.84-0.21,4.19-1.47,4.53-1.41C188.94,11.14,189.55,14.52,189.32,15.61"/>
</g>
</svg>
