<?xml version="1.0" encoding="utf-8"?>
<!-- Generator: Adobe Illustrator 29.8.3, SVG Export Plug-In . SVG Version: 9.03 Build 0)  -->
<svg version="1.0" id="Capa_1" xmlns="http://www.w3.org/2000/svg" xmlns:xlink="http://www.w3.org/1999/xlink" x="0px" y="0px"
	 viewBox="0 0 262.58 44.37" style="enable-background:new 0 0 262.58 44.37;" xml:space="preserve">
<style type="text/css">
	.st0{fill:#FFFFFF;}
</style>
<g>
	<path class="st0" d="M238.35,19.38V9.16c0-0.11-0.33-0.29-0.47-0.31c-1.71-0.23-3.93,0.19-5.7,0c-0.29,0.01-0.5,0.27-0.47,0.57
		l0.02,26.29c0.09,0.29,0.56,0.31,0.8,0.33c1.28,0.1,3.94,0.14,5.18,0c0.15-0.02,0.65-0.15,0.65-0.31V25.34h8.62v10.31
		c0,0.29,0.51,0.38,0.73,0.4c1.27,0.11,4.02,0.14,5.26,0c0.21-0.02,0.56-0.1,0.63-0.33l0.02-26.29c0.03-0.3-0.19-0.56-0.48-0.57
		c-1.77,0.19-3.99-0.23-5.7,0c-0.14,0.02-0.47,0.2-0.47,0.31v10.21H238.35z M223.7,14.82h4.96c0.04,0,0.32-0.2,0.34-0.26l-0.04-5.49
		l-0.26-0.17l-16.86-0.04c-0.29-0.03-0.55,0.19-0.56,0.48c0.16,1.56-0.2,3.5,0,5.01c0.02,0.14,0.2,0.48,0.3,0.48h5.48v20.92
		c0,0.16,0.5,0.29,0.65,0.31c1.27,0.15,3.87,0.1,5.18,0c0.17-0.01,0.82-0.09,0.82-0.31V14.82z M196.29,35.65V24.9l7.45,10.97
		c0.21,0.12,0.46,0.15,0.69,0.17c1.56,0.13,4.76,0.16,6.3,0c0.21-0.02,0.36-0.01,0.46-0.24l-7.14-10.78
		c3.21-0.55,5.45-3.26,5.85-6.5c0.74-6-3.04-9.37-8.65-9.68c-3.47-0.19-7.12,0.15-10.61,0c-0.25,0.05-0.59,0.11-0.62,0.41
		l-0.07,26.25c0.08,0.46,0.48,0.49,0.87,0.53c1.19,0.1,3.57,0.12,4.74,0C195.79,36.02,196.24,35.91,196.29,35.65 M144.71,9.06
		c-0.11-0.11-0.28-0.19-0.44-0.21c-1.4-0.17-3.14,0.14-4.58,0c-0.26,0-0.4,0.23-0.54,0.41l-3.9,15.51c-0.31,1.01-0.63-0.27-0.77-0.7
		c-1.4-4.59-2.08-9.74-3.56-14.26c-0.2-0.6-0.27-0.88-0.96-0.95c-1.66-0.16-3.58,0.13-5.27,0c-0.46,0.02-0.42,0.46-0.36,0.82
		l7,25.85c0.15,0.44,0.72,0.5,1.12,0.53c1.19,0.09,3.77,0.14,4.92,0c0.47-0.06,0.69-0.41,0.81-0.84c1.38-4.71,2.21-9.62,3.58-14.34
		c0.13-0.43,0.35-0.49,0.46-0.02c1.08,4.44,2.1,8.96,3.32,13.37c0.18,0.66,0.26,1.73,1.05,1.83c1.15,0.14,3.73,0.1,4.92,0
		c0.38-0.03,0.91-0.08,1.09-0.46l7.12-26.18c0.04-0.4-0.09-0.51-0.46-0.55c-1.67-0.18-3.64,0.14-5.35,0
		c-0.32,0.01-0.54,0.26-0.72,0.49c-1.37,4.79-2.29,9.73-3.66,14.52c-0.05,0.17-0.38,1.3-0.45,1.3l-0.26-0.18L144.92,9.5
		C144.88,9.35,144.81,9.17,144.71,9.06 M115.34,26.04l-8.45-16.88c-0.22-0.21-0.44-0.28-0.73-0.31c-2.15-0.21-4.63,0.17-6.82,0
		c-0.26-0.01-0.52,0.09-0.6,0.35L98.7,35.39c-0.01,0.54,0.28,0.62,0.73,0.66c1.28,0.11,4.11,0.14,5.35,0
		c0.3-0.03,0.49-0.15,0.61-0.43l-0.35-17.46l8.53,17.1c0.31,0.52,0.38,0.73,1.03,0.79c2.11,0.2,4.51-0.16,6.65,0
		c0.43,0.02,0.75-0.3,0.73-0.74l-0.02-26.03c-0.06-0.27-0.27-0.4-0.54-0.41c-1.78,0.13-3.77-0.17-5.52,0
		c-1,0.09-0.57,0.95-0.55,1.62c0.05,2.72-0.03,5.45-0.01,8.16c0.02,2.35,0.17,4.73,0.09,7.1C115.42,25.84,115.49,26.06,115.34,26.04
		 M95.3,30.43H84.91v-5.44h9.87c0.17,0,0.29-0.4,0.31-0.56c0.1-1.05,0.11-3.52-0.01-4.57c-0.02-0.17-0.09-0.48-0.3-0.48h-9.87v-4.91
		h9.87c0.21,0,0.28-0.3,0.3-0.48c0.11-1.05,0.11-3.5,0.01-4.56C95.06,9.15,95.03,9,94.76,8.88L78.53,8.9
		c-0.18,0.12-0.29,0.28-0.27,0.52l0,26.05c0.02,0.48,0.33,0.54,0.73,0.57l16.1-0.02c0.22-0.07,0.42-0.2,0.41-0.46
		c-0.15-1.47,0.19-3.32,0-4.74C95.5,30.69,95.43,30.47,95.3,30.43 M59.48,21.83V9.16c0-0.11-0.33-0.29-0.47-0.31
		c-1.71-0.23-3.93,0.19-5.7,0c-0.29,0.01-0.51,0.27-0.48,0.57l0.02,26.29c0.08,0.29,0.55,0.31,0.8,0.33c1.27,0.1,3.94,0.14,5.17,0
		c0.15-0.02,0.65-0.15,0.65-0.31V22.71l9.17,13.24l0.26,0.09l7.03-0.09l-9.47-14.27l8.35-12.61l-0.13-0.22h-6.2L59.48,21.83z
		 M172.56,7.83c-11.94,0.8-17.99,15.25-9.9,24.4c7.13,8.06,20.53,5.77,24.44-4.35C191.03,17.72,183.15,7.12,172.56,7.83 M43.79,1.84
		H1.81v40.69h41.98V1.84z M262.58,44.37H0V0h262.58V44.37z"/>
	<path class="st0" d="M21.7,8.01c-3.99,0.41-7.23,4.16-7.49,8.17c-0.48,7.64,8.39,12.33,14.18,7.41
		C35.07,17.92,30.54,7.09,21.7,8.01 M22.15,3.59v2.45c0.68-0.15,1.29,0.04,1.98,0V3.59l1.9,0.26v2.63l1.9,0.7V4.38l1.88,0.72
		l0.12,3.61c4.76,4.28,4.68,12.01-0.08,16.26l0.07,14.35l-1.98,0.76V26.39c-0.47,0.13-1.38,0.35-1.79,0.59
		c-0.11,0.06-0.19,0.09-0.2,0.24l0.01,13.32c-0.04,0.15-1.65,0.26-1.9,0.23V27.53h-1.98v13.24l-1.98-0.27V27.18l-1.81-0.7v13.51
		c-0.27,0.05-1.96-0.65-1.98-0.76l-0.02-14c-5.25-4.24-5.29-12.67,0.02-16.87l0.01-3.35l1.88-0.71v2.72l1.98-0.62V3.77L22.15,3.59z"
		/>
	<path class="st0" d="M172.48,14.32c8.11-0.93,12.06,9.45,5.92,14.62c-5.09,4.29-12.58,0.23-12.71-6.27
		C165.6,18.74,168.54,14.77,172.48,14.32"/>
	<path class="st0" d="M196.2,20.26v-5.88c2.36,0.02,6.95-0.42,6.9,3.11C203.06,20.93,198.44,20.17,196.2,20.26"/>
	<path class="st0" d="M20.17,17.19H18.7l1.51,5.53l1.52,0.03c0.3-0.91,0.51-1.9,0.86-2.79c0.03-0.09,0.03-0.21,0.17-0.23l0.78,3.07
		l1.54-0.01l1.65-5.6H25.3l-1.03,3.51l-1.04-3.52l-1.11,0.09l-1.08,3.42L20.17,17.19z M21.89,10.61h-1.38v5.61h1.38v-2.28l1.77,2.28
		h1.77l-2.23-2.95l2.06-2.66h-1.81l-1.55,2.19V10.61z M21.79,8.97c6.94-0.8,11.47,7,7.17,12.64c-4.27,5.6-13.23,2.83-13.78-4.22
		C14.87,13.43,17.81,9.42,21.79,8.97"/>
</g>
</svg>
