<?xml version="1.0" encoding="utf-8"?>
<!-- Generator: Adobe Illustrator 29.8.3, SVG Export Plug-In . SVG Version: 9.03 Build 0)  -->
<svg version="1.0" id="Capa_1" xmlns="http://www.w3.org/2000/svg" xmlns:xlink="http://www.w3.org/1999/xlink" x="0px" y="0px"
	 viewBox="0 0 257.27 81.47" style="enable-background:new 0 0 257.27 81.47;" xml:space="preserve">
<style type="text/css">
	.st0{fill:#FFFFFF;}
</style>
<g>
	<path class="st0" d="M60.53,24.54c0.19-0.16,0.3-0.66,0.5-0.71l3.61,3.35l-5.09,5.1l5.09,5.1l-3.58,3.33
		c-0.63-0.11-3.8-4.21-4.73-4.69c-0.31-0.16-0.45-0.13-0.68,0.13l-19.59,19.6c-0.18,0.2-0.11,0.33,0,0.53
		c0.48,0.93,4.58,4.11,4.69,4.73l-3.33,3.58l-5.1-5.09l-5.1,4.83l-3.33-3.33c0.11-0.62,4.21-3.8,4.69-4.73
		c0.11-0.21,0.18-0.33,0-0.53L8.85,36.02c-0.2-0.18-0.33-0.11-0.53,0c-0.93,0.48-4.11,4.58-4.73,4.69L0,37.38l5.09-5.1L0,27.19
		c1.03-0.78,2.08-2.42,3.07-3.1c0.28-0.19,0.29-0.33,0.68-0.13c1.19,0.61,3.38,3.98,4.56,4.59c0.21,0.11,0.33,0.18,0.53,0
		L28.59,8.81c0.18-0.2,0.11-0.33,0-0.53C28.11,7.35,24,4.17,23.89,3.54c0.36-0.64,2.67-3.17,3.12-3.29c0.37-0.1,0.49,0.04,0.76,0.22
		c0.76,0.51,4.23,4.57,4.55,4.57l5.1-4.83l3.33,3.33c-0.11,0.62-4.21,3.8-4.69,4.73c-0.16,0.31-0.13,0.45,0.13,0.68l19.6,19.59
		c0.2,0.18,0.33,0.11,0.53,0C56.93,28.24,59.59,25.34,60.53,24.54z M41.58,21.42l-9.26-9.38l-9.26,9.38H41.58z M22.8,26.25v-4.56
		l-10.73,10.6l10.73,10.6v-4.56h19.05v4.56l10.73-10.6l-10.73-10.6v4.56H22.8z M41.58,43.15H23.07l9.26,9.38L41.58,43.15z"/>
	<path class="st0" d="M89.87,0.49l4.43,13.42l4.56-13.42h4.96l1.07,19.58h-3.76L100.6,5.59l-4.69,13.42l-3.37,0.14L87.86,5.59
		l-0.44,14.05c-0.28,0.84-2.93,0.28-3.72,0.44l1.07-19.58H89.87z"/>
	<path class="st0" d="M177.59,9.89c-0.31,0.45,2.19,2.44,2.55,2.94l1.22-3.48l3.48,0.8l-1.88,4.7l2.94,2.92l-1.9,2.54
		c-0.77,0.45-2.75-1.86-3.32-2.37c-2.52,2.95-9.44,3.63-11.41-0.14c-1.64-3.14-0.49-7.15,2.97-8.34c0.08-0.49-1.15-2.14-1.37-2.92
		c-2.4-8.52,12.13-8.86,10.02-0.2C180.52,7.89,179.1,9.4,177.59,9.89z M175.64,2.96c-2.35,0.48-1.65,3.91-0.07,5
		C178.23,7.22,178.93,2.29,175.64,2.96z M174.02,11.79c-3.34,2.18-1.54,6.62,2.56,5c0.33-0.13,1.87-0.96,1.28-1.4
		c-1.1-0.65-2.26-2.74-3.07-3.37C174.54,11.82,174.36,11.67,174.02,11.79z"/>
	<path class="st0" d="M94.97,61.93l-1.06,3.11c-0.38,0.27-6.58-2.48-6.71,1.34c-0.07,1.94,4.35,3.12,5.87,4.28
		c4.71,3.6,2.41,10.4-3.62,10.58c-1.13,0.03-5.54-0.53-6.3-1.21c-0.55-0.5,0.7-2.55,0.56-3.34c0.48-0.41,7.47,3.26,7.79-0.95
		c0.2-2.62-3.77-3.36-5.63-4.58c-1.78-1.18-2.45-2.35-2.45-4.54C83.42,60.31,90.51,60.26,94.97,61.93z"/>
	<path class="st0" d="M103.75,65.48c6.97-0.97,10.16,4.36,8.57,10.72c-1.12,4.46-5.55,6.2-9.73,4.79
		C95.96,78.73,96.39,66.51,103.75,65.48z M105.09,68.43c-4.25,0.23-4.12,7.96-1.46,9.38C109.64,81,111.03,68.11,105.09,68.43z"/>
	<path class="st0" d="M214.82,4.59c6.5-0.7,9.13,4.04,8.35,9.96c-1.06,8.08-13.36,8.22-14.44,0C208.12,9.9,209.59,5.16,214.82,4.59z
		 M214.8,7.79c-3.27,0.75-3.3,8.81,0.27,9.54c2.76,0.57,4.12-1.31,4.36-3.83C219.75,10.29,218.72,6.9,214.8,7.79z"/>
	<path class="st0" d="M159.44,79.81c-2.76-2.45-3.02-8.74-1.01-11.69c2.11-3.11,7.61-3.59,10.56-1.48c4,2.86,3.72,11.53-0.77,13.95
		C165.77,81.9,161.57,81.69,159.44,79.81z M166.77,69.26c-0.88-0.83-2.6-0.95-3.71-0.55c-3.2,1.17-3.12,9.72,1.52,9.59
		C168.41,78.19,168.88,71.24,166.77,69.26z"/>
	<path class="st0" d="M206.03,0.5l-0.52,3.37c-4.63-0.83-8.89-0.52-9.4,5.08c-0.64,7.06,3.22,8.97,9.66,7.49l0.53,3.37
		c-5.7,1.33-12.5,0.73-14.04-5.94c-1.02-4.4-0.27-10.44,4.15-12.67C199.39-0.31,202.81,0.2,206.03,0.5z"/>
	<path class="st0" d="M138.2,50.62l-0.58-1.84c-2.54,2.91-8.6,2.72-9.12-1.74c-0.69-5.95,4.05-5.81,8.59-6.04
		c0.35-4.47-4.11-2.44-6.72-1.99l-0.75-2.5l0.22-0.47c2.26-0.9,6.52-1.57,8.69-0.37c4.01,2.22,0.65,10.74,2.84,14.32
		C141.33,50.42,138.72,50.69,138.2,50.62z M136.23,43.74c-1.28,0.11-3.95,0.16-4.24,1.7c-0.6,3.18,4.21,2.91,4.97,0.13
		C137.19,44.7,137.35,43.65,136.23,43.74z"/>
	<path class="st0" d="M248.15,43.95c0.05,4.35,5.15,4.35,8.19,2.97c1.14,2.68,1.58,3.06-1.42,3.67c-6.4,1.29-11.03-1.47-10.53-8.39
		c0.36-4.93,3.74-7.77,8.7-7.08c1.86,0.26,4.18,2.5,4.18,4.4v4.43H248.15z M254.05,41.27c0.16-4.69-5.54-4.25-5.9,0H254.05z"/>
	<path class="st0" d="M226.95,35.64l3.75-0.27l0.53,14.74l-3.31,0.53c-0.78-0.26-0.04-1.45-0.84-1.33
		c-0.49,0.07-1.01,0.67-1.55,0.86c-2.1,0.75-5.07,0.92-6.63-0.99c-0.31-0.38-1.07-2.03-1.07-2.42V35.64h3.76V45.7
		c0,2.37,4.12,2.35,5.37,0.8V35.64z"/>
	<path class="st0" d="M127.16,65.95v10.33c0,2.35,4.23,2.03,5.37,0.54V65.95h3.76c0.16,4.91-0.44,9.91,0.54,14.75
		c-1.86-0.24-3.36,1.3-4.16-1.07c-1.93,1.67-6.47,2.09-8.19,0.06c-0.31-0.37-1.07-1.95-1.07-2.34v-11.4H127.16z"/>
	<path class="st0" d="M105.16,50.39h-3.76V39.8c0-0.15-0.61-0.93-0.81-1.07c-1.36-0.95-3.38-0.15-4.56,0.8v10.86h-3.76l-0.27-14.75
		l3.33-0.28l0.56,1.62c1.97-2.16,7.07-2.51,8.68,0.18c0.11,0.18,0.58,1.23,0.58,1.3V50.39z"/>
	<path class="st0" d="M181.35,35.64v10.33c0,0.06,0.56,1.1,0.6,1.14c1.28,1.2,3.44,0.14,4.76-0.47v-11h3.76
		c0.22,4.81-0.53,9.77,0.54,14.48l-3.32,0.52l-0.84-1.59c-1.51,1.77-5.26,2.16-7.2,1.03c-0.83-0.48-2.05-2.1-2.05-3.05v-11.4H181.35
		z"/>
	<path class="st0" d="M174.91,80.71l-0.01-14.64l3.22-0.38l0.41,1.6c2.27-2,6.75-2.53,8.57,0.28c0.14,0.21,0.68,1.35,0.68,1.46
		v11.67h-3.76v-10.6c0-0.06-0.62-0.86-0.74-0.95c-1.52-1.13-3.17-0.13-4.63,0.54v11H174.91z"/>
	<path class="st0" d="M142.99,5.05v9.79c0,0.2,0.61,1.61,0.79,1.82c0.95,1.07,3.93,0.34,4.84-0.74V5.05h3.76l0.27,14.75l-3.31,0.28
		l-0.84-1.35c-1.79,1.83-5.75,2.2-7.72,0.54c-0.22-0.19-1.28-1.9-1.28-2.02V5.05H142.99z"/>
	<path class="st0" d="M109.99,38.59l-2.42,0l0.12-2.7l2.3-0.25c-0.26-5.08,3.87-6.77,8.32-5.63l-0.51,2.79
		c-2.6,0.29-3.96-0.34-4.32,2.83l2.97,0.12l0.25,2.84c-0.23,0.23-2.8-0.42-3.22,0.4v11.4h-3.49V38.59z"/>
	<path class="st0" d="M153.42,35.67l-0.51,2.92c-0.21,0.19-5.02-1.7-5.09,0.66c-0.06,1.99,5.63,2.45,6.14,6.2
		c0.82,6.09-6.09,5.93-10.15,4.65l0.52-3.2c0.29-0.3,5.64,2.22,5.91-0.41c0.17-1.7-2.93-2.45-4.01-3.23
		c-1.27-0.9-2.23-2.34-2.15-3.97C144.31,34.66,150.09,34.53,153.42,35.67z"/>
	<path class="st0" d="M200.66,65.95l-0.83,2.93c-0.48,0.35-4.82-1.57-5.01,0.74c-0.18,2.09,5.56,2.41,6.09,6.15
		c0.88,6.2-5.99,6.13-10.15,4.65l0.94-3.19c1.67,1.3,7.71,1.24,4.93-1.73c-1.76-1.88-5.62-1.55-5.56-5.66
		C191.13,64.93,197.27,65.16,200.66,65.95z"/>
	<path class="st0" d="M135.74,5.06l-0.8,3.11c-1.46-0.26-3.24-0.92-4.6-0.05c-1.47,1.84,2.92,3.17,4.02,4.07
		c1.68,1.38,2.18,3.43,1.5,5.48c-1.22,3.67-6.9,2.86-9.8,2.01c-0.43-0.27,0.51-2.49,0.57-3.06c0.5-0.36,5.86,1.94,5.86-0.69
		c-0.01-2.46-6.37-2.24-6.17-6.98C126.55,3.95,132.2,4.54,135.74,5.06z"/>
	<path class="st0" d="M204.12,38.56c-4.05-0.86-6.78,0.17-6.7,4.72c0.08,4.27,3.48,5.11,6.99,3.89l0.41,2.97
		c-3.51,1.63-8.71,0.81-10.39-3.05c-1.67-3.83-0.87-10.02,3.6-11.53c1.93-0.65,4.87-0.81,6.63,0.25L204.12,38.56z"/>
	<path class="st0" d="M161.76,31.61v4.02l2.83,0.25l0.12,2.7l-2.95,0v8.18c0,0.83,1.49,1.04,2.14,0.94
		c-0.11,0.7,0.36,2.65-0.44,2.91c-1.59,0.48-5.46-0.54-5.46-2.51v-9.52l-2.42,0l0.12-2.7l2.3-0.25l0.03-3.19L161.76,31.61z"/>
	<path class="st0" d="M212.47,31.61v4.02l2.83,0.25l0.12,2.7l-2.95,0v7.91c0,0.8,1.67,1.44,2.41,1.21c-0.11,0.7,0.36,2.65-0.44,2.91
		c-1.19,0.39-4.08-0.15-4.89-1.2c-0.13-0.17-0.84-1.74-0.84-1.84v-8.99l-2.15,0v-2.95l2.15,0l0.13-2.96L212.47,31.61z"/>
	<path class="st0" d="M144.86,66.22l2.69,0.15l0,2.8l-2.68,0v8.18c0,0.57,1.64,0.83,2.15,0.67l0,2.95c-8.55,1.35-5.3-6.49-5.9-11.81
		l-2.3-0.25l-0.12-2.7l2.3-0.25l0.13-3.22c1.19,0.17,2.84-1.13,3.74-0.41V66.22z"/>
	<path class="st0" d="M121.26,1.3v4.02l2.96,0.15l0,2.8l-2.95,0v7.91c0,0.99,1.67,1.07,2.42,0.94l0,2.95
		c-1.99-0.1-4.19,0.54-5.49-1.36c-0.14-0.2-0.68-1.36-0.68-1.46V8.27l-2.15,0V5.32l2.15,0l0.03-3.18L121.26,1.3z"/>
	<polygon class="st0" points="119.65,80.71 115.89,80.71 115.89,60.99 116.34,60.64 119.65,60.05 	"/>
	<rect x="84.24" y="30.81" class="st0" width="3.76" height="19.58"/>
	<path class="st0" d="M234.73,36.58c-0.02-0.19-0.42-0.54-0.27-0.94l3.32-0.24l0.84,1.58c1.17-1.11,2.82-1.7,4.43-1.6l-0.29,3.19
		c-1.47,0.32-3.35,0.37-4.13,1.87l0.13,9.96h-4.02C234.4,45.97,235.18,40.92,234.73,36.58z"/>
	<path class="st0" d="M167.13,36.31c-0.01-0.11-0.37-0.37-0.27-0.67c0.97,0.26,2.24-0.44,3.08-0.28c0.97,0.18,0.42,1.08,1.08,1.62
		c1.17-1.11,2.82-1.7,4.43-1.6l-0.3,3.19c-0.97,0.06-4.26,0.86-4.26,2.04v9.79h-3.76C166.75,45.94,167.64,40.66,167.13,36.31z"/>
	<path class="st0" d="M119.11,50.39l-0.27-14.75l3.31-0.28c0.59,0.14,0.13,1.93,0.84,1.62c0.34-0.15,0.84-0.82,1.56-1.12
		c0.8-0.33,1.74-0.51,2.6-0.48l-0.03,3.19c-0.8,0.03-4.26,0.88-4.26,1.77v10.06H119.11z"/>
	<path class="st0" d="M109.36,5.09c0.76,0.05,3.28-0.4,3.55,0.4l-0.08,14.33l-0.32,0.21c-0.76-0.05-3.28,0.4-3.55-0.4l0.08-14.33
		L109.36,5.09z"/>
	<rect x="156.67" y="5.05" class="st0" width="3.76" height="15.02"/>
	<rect x="150.23" y="65.95" class="st0" width="3.76" height="14.75"/>
	<path class="st0" d="M0,74.27c0.57,0.05,1.39-0.16,1.88,0.13c0.38,0.23,1.14,2.45,1.47,2.55c0.49,0.15,0.37-0.19,0.48-0.34
		c1.06-1.4,0.7-2.82,3.14-2.34v6.97H5.37v-3.76l-1.74,2.95l-2.01-3.22v4.02L0,80.84V74.27z"/>
	<path class="st0" d="M64.64,77.69c0,2.01-1.63,3.64-3.64,3.64s-3.64-1.63-3.64-3.64c0-2.01,1.63-3.64,3.64-3.64
		S64.64,75.68,64.64,77.69z M63.03,77.67c0-1.13-0.92-2.04-2.04-2.04s-2.04,0.92-2.04,2.04s0.92,2.04,2.04,2.04
		S63.03,78.8,63.03,77.67z"/>
	<path class="st0" d="M25.19,76.13c-0.44-0.26-3.22-1.06-2.92,0.15c0.2,0.84,4.59,0.47,4.02,3.48c-0.42,2.23-4.46,1.57-5.9,0.68
		l0.71-1.31c0.55-0.16,4.07,2.02,3.42-0.31c-6.5-0.81-3.71-6.99,1.23-3.85L25.19,76.13z"/>
	<path class="st0" d="M29.78,74.27v4.69c0,0.99,2.95,0.91,2.95-0.54v-4.16h1.61v4.43c0,1.12-1.66,2.46-2.82,2.56
		c-1.13,0.1-3.35-0.91-3.35-2.02v-4.96H29.78z"/>
	<path class="st0" d="M56.6,74.81c-0.6,2.1-1.36,0.86-2.3,0.8c-2.61-0.19-3.12,4.03-0.25,4.05c0.98,0.01,1.96-0.84,2.43,0.78
		c-3.29,2.79-7.82-1.49-5.24-4.97C52.58,73.67,54.81,73.71,56.6,74.81z"/>
	<path class="st0" d="M45.07,76.41l-0.14-0.81L44,75.61c-0.55,0.53,1.92,2.47,2.28,2.95l1.11-1.05l0.9,0.65l-1.05,1.11l1.05,1.3
		l-0.7,0.65c-0.47,0.09-0.73-0.79-1.3-0.79c-0.8,0.01-1.44,1.44-2.97,0.28c-1.99-1.51,0.07-2.97,0.08-3.35
		c0.01-0.41-1.13-0.95-0.32-2.26c1.04-1.69,2.92-0.78,3.33,0.92L45.07,76.41z M44,78.29c-1.09,2.02,1.55,1.93,1.34,0.94L44,78.29z"
		/>
	<polygon class="st0" points="19.32,74.27 19.32,75.88 17.17,75.88 17.17,81.24 15.56,80.84 15.56,75.88 13.68,75.88 13.68,74.27 	
		"/>
	<path class="st0" d="M12.34,74.27l-0.03,1.59l-0.79,0.16l0,3.46l0.79,0.16c0.83,2.29-3.83,2.32-3.2,0.12l0.84-0.28l0-3.46
		l-0.79-0.16l-0.03-1.59H12.34z"/>
	<rect x="226.42" y="15.79" class="st0" width="3.76" height="4.29"/>
	<path class="st0" d="M39.44,74.27c0.48,1.09-0.51,1.66-0.56,2c-0.08,0.61-0.08,2.38,0,2.99c0.04,0.34,1.04,0.91,0.56,2l-2.95,0
		c-0.55-1.42,0.7-1.66,0.81-2.27c0.16-0.85-0.14-2.04,0.01-2.95l-0.79-0.16l-0.03-1.59L39.44,74.27z"/>
	<path class="st0" d="M112.94,0.23l-0.25,3.1c-0.69,0.13-3.33,0.34-3.66-0.13l-0.12-2.97H112.94z"/>
	<rect x="156.67" y="0.23" class="st0" width="3.76" height="3.22"/>
	<rect x="150.23" y="60.85" class="st0" width="3.76" height="3.22"/>
	<polygon class="st0" points="66.8,79.63 66.8,81.24 65.44,81.12 65.19,79.63 	"/>
	<rect x="22.8" y="29.74" class="st0" width="19.05" height="5.1"/>
</g>
</svg>
