<?xml version="1.0" encoding="utf-8"?>
<!-- Generator: Adobe Illustrator 29.8.3, SVG Export Plug-In . SVG Version: 9.03 Build 0)  -->
<svg version="1.0" id="Capa_1" xmlns="http://www.w3.org/2000/svg" xmlns:xlink="http://www.w3.org/1999/xlink" x="0px" y="0px"
	 viewBox="0 0 147.75 99.57" style="enable-background:new 0 0 147.75 99.57;" xml:space="preserve">
<style type="text/css">
	.st0{fill:#FFFFFF;}
</style>
<g>
	<path class="st0" d="M99.94,43.62c-1.09,0.04-2.19-0.03-3.29,0L96.43,44l1.91,2.92c0.46,0.35,0.67,0.11,0.97-0.29
		c0.31-0.41,1.54-2.61,1.27-3.02C100.33,43.27,100.05,43.62,99.94,43.62"/>
	<path class="st0" d="M84.13,0l19.18,29.05c8.29,15.22-2.85,33.83-20.11,33.04c-2.21-0.1-4.25-0.93-6.26-1.12
		c-8.23-0.78-17.64,0.61-26,0l-8.83,0.17c-0.09-0.08,0.88-1.9,1.17-1.92l32.5,1.04l0.45-3.57l-32.09,1.27
		c-0.14-0.11,1.9-2.83,2.03-2.95c0.55-0.5,1.03-0.08,1.64-0.07c8.98,0.2,17.96,0.71,26.93,0.95c0.59,0.02,1.22,0.37,1.87,0.02
		l1.03-3.52l-30.36,1.03c0.7-0.64,1.69-2.83,2.57-2.95l28.3,1.13l1.92-3.18l-0.19-0.3L50.4,49.19c0.43-0.6,1.86-3.07,2.43-3.18
		c0.26-0.05,0.66-0.02,0.95-0.01c8.65,0.33,17.31,0.96,25.98,1.12c0.33,0.01,0.68,0.19,0.93,0.17c0.43-0.04,2.58-2.87,3.21-3.27
		c0.06-0.36-0.16-0.22-0.39-0.24c-3.81-0.28-8.9,0.35-12.83,0.49c-5.68,0.2-11.33,0.28-16.99,0.63c-0.09-0.53,0.53-0.79,0.45-1.32
		c-0.05-0.34-1.42-1.85-1.23-2.03l32.33,1.28c2.79-1.43,6.19-1.85,9.1-0.36c0.41,0.21,0.76,0.73,1.23,0.82
		c0.63,0.12,5.06,0.08,5.32-0.3c-0.02-0.5,0.39-3.4-0.03-3.52c-1.66,0.05-3.33-0.03-5,0c-14,0.25-28.1,0.44-42.09,0.97
		c-0.74,0.03-1.38,0.22-1.73-0.48c-0.36-0.73-1.18-6.08-0.46-6.05c1.59,1.24,3.33,2.54,5.24,3.26c2.11,0.8,5.73,0.48,8.07,0.55
		c11.15,0.37,22.33,0.59,33.48,0.97c0.81,0.02,1.63-0.04,2.43-0.01c0-0.76-0.21-3.35-1.02-3.5c-3.44,0.04-6.89-0.05-10.34-0.01
		c-0.37,0-0.71,0.17-1.08,0.17c-8.83,0.13-17.63,0.17-26.47,0.3c-1.39,0.02-3.11,0.36-4.54,0.17c-1.04-0.14-1.57-2.12-1.94-2.95
		c0.17-0.27,0.42-0.24,0.7-0.25c1.33-0.04,3.16,0.29,4.53,0.34c4.17,0.16,8.37,0.04,12.52,0.48l7.6,0.15
		c-0.78-0.94-2.29-1.17-3.13-2.07c1.48-0.03,2.98,0.03,4.47,0c1.25-0.02,3.76-0.57,4.81,0.31c0.74,0.62,0.31,2.07,1.46,2.22
		c3.07,0.1,6.16-0.1,9.23,0c0.62,0.02,1.43,0.47,1.95-0.08c-0.76-1.35-2.1-2.48-3.46-3.16c-1.63-0.81-3.13-0.62-4.92-0.58
		c-10.48,0.24-20.97,1.14-31.45,1.45c-0.56,0.02-4.35,0.09-4.49-0.1c-0.22-1.28-0.24-2.77,0.02-4.05l2.14,1.88
		c0.61,0.34,1.18,0.74,1.82,1.02c0.36,0.16,2.18,0.98,1.85,0.18c-0.25-0.61-0.93-1.19-0.81-1.96l29.9,0.79
		c-0.18-1.62-2.47-3.43-4.01-3.65l-26.13,1.59l-0.25-0.11c-0.46-1.74-0.7-3.29-0.46-5.08c0.03-0.24,0-0.39,0.24-0.55
		c1.02,1.2,5.05,4,6.5,3.6c0.17-0.05,0.34-0.21,0.47-0.33L84.13,0"/>
	<path class="st0" d="M51.02,74.83v5.41c-0.73-0.12-1.43,0.13-2.11,0.17c-4.3,0.23-9.5-0.5-13.62-0.01
		c-0.41,0.05-1.17,0.46-1.17,0.88v3.02l0.23,0.24h14.79v5.41H34.35l-0.23,0.24v3.18c0,0.36,0.9,1.03,1.32,0.88h18.8
		c0.25,0.13,1.01-0.66,1.01-0.72V75.07l0.23-0.24h6.42c1.36,0,3.55,4.4,4.2,5.6c0.73,1.35,5.37,11.03,5.98,11.13
		c0.47,0.08,0.76-0.57,0.97-0.92c2.75-4.33,4.82-10,7.7-14.14c0.36-0.53,1.3-1.67,1.96-1.67h5.95l0.24,0.24v24.44h-5.79V85.02
		l-0.43,0.28l-7.74,14.17l-0.2,0.05c-1.43-0.17-3.17,0.18-4.55,0c-0.22-0.03-0.4-0.05-0.55-0.24l-7.81-14.19l-0.31,0.16v12.9
		c0,0.34-0.78,1.1-1.14,1.23l-30.25,0.13c-1.22-0.09-1.7-1.03-1.8-2.15c-0.55-6.51,0.43-13.8,0-20.39c-0.11-1,0.84-2.14,1.81-2.14
		H51.02z"/>
	<path class="st0" d="M99.39,84.54h14.48l0.24,0.24v4.94l-0.24,0.24H99.39v3.43c0,0.52,1.29,1.12,1.79,1.04l23.72-0.25
		c1.29-1.64,2.77-3.14,4.07-4.78c1.11-1.4,1.76-1.55,0.55-3.1c-1.16-1.49-3.22-3.96-4.53-5.26c-0.11-0.11-0.74-0.63-0.79-0.63h-3.76
		l-0.24-0.24v-5.1l0.24-0.24h6.11c0.11,0,0.86,0.3,1.01,0.4l6.5,7.57l0.56-0.24c1.24-1.3,5.72-7.73,7.27-7.73h5.87v5.57h-3.84
		c-1.45,1.9-3.15,3.62-4.61,5.5c-0.42,0.54-1.39,1.44-0.95,2.07l5.25,6.28h4.15v5.26h-7.59c-0.07,0-0.51-0.24-0.63-0.32l-5.49-6.7
		c-0.3-0.04-0.43,0.14-0.62,0.32c-1.63,1.6-3.11,4.16-4.69,5.9c-0.31,0.34-0.63,0.72-1.11,0.79l-31.77,0.02
		c-0.89,0.02-1.99-0.95-2.11-1.83l0-20.87c0.03-0.88,1.13-1.98,1.96-1.98h20.5l0.24,0.24v5.1l-0.24,0.24H100.4
		C99.22,80.4,99.03,83.69,99.39,84.54"/>
	<path class="st0" d="M7.83,92.5v-5.49l0.24-0.24h9.7c0.03,0,0.43-0.4,0.47-0.48c0.16-0.36,0.15-4.37,0.08-5.02
		c-0.08-0.75-0.44-0.96-1.17-1.03c-2.33-0.26-8-0.24-10.34-0.01c-0.23,0.02-0.85,0.12-0.85,0.41v18.87H0V74.83h22.78
		c0.43,0,1.46,1.01,1.48,1.52l-0.08,14.87c-0.12,0.36-1.07,1.28-1.4,1.28H7.83z"/>
</g>
</svg>
