<?xml version="1.0" encoding="utf-8"?>
<!-- Generator: Adobe Illustrator 29.8.3, SVG Export Plug-In . SVG Version: 9.03 Build 0)  -->
<svg version="1.0" id="Capa_1" xmlns="http://www.w3.org/2000/svg" xmlns:xlink="http://www.w3.org/1999/xlink" x="0px" y="0px"
	 viewBox="0 0 210.53 170.59" style="enable-background:new 0 0 210.53 170.59;" xml:space="preserve">
<style type="text/css">
	.st0{fill:#FFFFFF;}
</style>
<g>
	<path class="st0" d="M48.2,69.74c0.12-4.45,3.16-9.33-1.78-12.11C31.38,49.18,5.3,53.22,7.57,75.3
		c0.94,9.12,9.98,13.58,14.94,19.84c0.49,0.62,1.15,1.15,0.37,1.89c-2.48,0.27-4.75-0.78-6.93-1.82c-3.13-1.49-6.08-4.75-9.63-2.16
		c-1.05,0.76-1.5,1.79-1.81,3.05c-0.61,2.49-1.19,6.82-1.45,9.44c-0.49,4.92,0.96,5.91,5.13,7.91c12.45,5.95,31.42,5.48,37.05-9.54
		c2.1,0.91,4.46,1.09,6.72,0.84c1.02-0.11,2.37-0.77,3.16-0.81c0.78-0.04,1.67,0.5,2.52,0.55c1.64,0.1,3.3-0.06,4.94,0
		c-0.5,4.21-2.76,9.43,2.25,11.64c4.61-0.31,11.48,0.94,15.83,0.01c1.53-0.33,2.83-1.78,3.3-3.25l2.34-15.86
		c0.53-0.12,0.55,0.18,0.8,0.48c3.95,4.66,7.29,12.93,11.35,17.18c0.98,1.02,1.83,1.46,3.23,1.59c3.65,0.35,12.55,0.43,16.11-0.01
		c2.18-0.27,3.93-2.62,3.98-4.79c0.05-2.33-2.25-4.57-3.27-6.58c-0.23-0.51,1.04-0.68,1.3-0.68c2.89-0.05,6.28,0.58,9.29,0.28
		c9.14-0.81,20.05,1.02,29.07-0.01c1.43-0.16,2.76-0.9,3.67-2.01c0.43,0.44,0.81,0.89,1.35,1.21c1.92,1.11,8.14,1.04,10.5,0.8
		c2.23-0.23,3.62-1.43,4.52-3.44c5.58,4.65,14.68,4.77,21.11,1.94c4.83-2.13,3.35-5.96,4.8-10.06c0.55-1.57,1.37-2.06,1.59-4.13
		c0.38-3.58,0.08-8.07-1.51-11.32c-4.85-9.95-18.09-10.24-25.7-3.43c-2.41-3.96-6.92-5.04-11.26-4.56
		c-1.02,0.11-2.38,0.77-3.16,0.81c-0.8,0.04-1.82-0.52-2.79-0.57c-6.14-0.33-12.58,0.05-18.63,0c-4.84-0.04-9.33-0.05-14.13-0.27
		c-4.04-0.18-8.04,0.07-12,0.86c1.98-2.82,5.7-5.52,7.62-8.19c2.42-3.35,0.31-7.6-3.8-7.91c-4.14-0.31-11.46-0.37-15.55,0
		c-1.54,0.14-2.7,0.82-3.81,1.87c-2.7,2.55-5.6,6.13-8.17,8.92c-0.5,0.54-1.14,1.32-1.84,1.57c0.44-3.88,2.89-11.62-3.1-12.36
		c-2.56-0.32-12.52-0.37-14.9,0.07c-1.43,0.27-2.98,1.71-3.45,3.1l-1.85,12.33c-3.49,0.34-7.75-1.1-10.29,2.02
		c-0.61-0.88-2.37-2.01-3.39-2.01H48.2z M51.59,66.87c1.06,0.06,2.15-0.1,3.21,0.03c0.87,0.11,2.02,0.79,2.57,0.8
		c0.67,0.02,1.75-0.7,2.57-0.81c1.63-0.22,3.54,0.11,5.2-0.03c1.06-5.66,0.02-13.62,7-15.42c2.73-0.71,14.88-0.72,17.51,0.11
		c2.78,0.89,5.07,3.69,5.14,6.69c2.62-1.91,4.73-5.8,7.9-6.76c2.69-0.81,15.05-0.77,18.19-0.39c7.96,0.94,9.58,10.47,3.56,15.19
		c0.98,0.05,1.98-0.07,2.96,0.01c5.9,0.44,11.5,0.91,17.52,0.58c5.84-0.32,11.56,0.08,17.51-0.02c4.85-0.08,8.2-1.32,13.11,0.74
		c1.32,0.55,2.53,1.35,3.53,2.39c14.53-9.36,31.24,0.04,29.76,17.96c-0.27,3.24-1.32,4.21-2.1,6.77c-0.52,1.69-0.57,4-1.12,5.75
		c-2.46,7.88-16.47,8.36-22.94,6.4c-0.8-0.24-3.28-1.51-3.61-1.5c-0.26,0.01-1.93,1.3-2.68,1.57c-1.95,0.69-9.44,0.7-11.71,0.44
		c-2.3-0.26-3.19-1.23-5.92,0.01l-34.88-0.01c1.45,3.75,1.24,7.52-1.97,10.2c-1.63,1.36-3.12,1.73-5.22,1.88
		c-3.96,0.28-11.09,0.37-14.97-0.02c-6.77-0.68-9.3-9.78-13.28-14.36c-1.38,5.85-0.63,13.56-8.47,14.36
		c-2.99,0.3-13.39,0.36-15.93-0.44c-2.82-0.89-5.07-3.58-5.38-6.59c-0.18-1.75,0.43-3.24,0.3-4.89c-1.14,0.03-2.79-0.43-3.8-0.4
		c-1.12,0.04-2.93,0.77-4.26,0.84c-1.16,0.05-2.93-0.43-3.66-0.3c-0.55,0.1-2.19,2.98-2.83,3.75c-8.35,10.13-23.04,10.29-34.46,6.03
		c-11.3-4.22-10.8-7.54-8.84-18.77c0.34-1.95,0.44-4.01,1.41-5.74c1.94-3.43,6.24-4.66,9.83-3.36c-6.91-6.7-9.95-15.31-6.43-24.77
		C11.96,48.53,32.69,48,46.13,54.18C52.15,56.95,53.03,60.34,51.59,66.87"/>
	<polygon class="st0" points="87.16,59.11 84.2,81.23 105.09,59.11 119.91,59.11 98.2,82.56 116.81,111.38 102.27,111.38 
		101.16,110.22 83.91,83.81 79.54,111.38 66.55,111.38 74.17,59.11 	"/>
	<path class="st0" d="M42.83,72.32c-0.2,0.21-2.22-1.28-2.63-1.49c-3.48-1.75-10.99-4.41-13.58-0.21
		c-3.04,4.94,4.47,9.08,7.46,11.89c5.57,5.22,9.11,9.87,7.03,18.08c-3.02,11.98-16.37,13.03-26.3,10.13
		c-1.11-0.32-6.44-2.33-6.86-3.08c-0.68-1.23,1.38-8.7,1.27-10.62c4.18,2.8,15.8,8.94,18.41,1.64c1.14-3.19-0.24-5.52-2.32-7.81
		c-5.99-6.61-15.26-10.75-12.57-21.69c3.3-13.41,22.35-12.47,31.67-6.77L42.83,72.32z"/>
	<path class="st0" d="M124.43,80.37c-4.09-0.97-7.81,2.03-8.9,6.02c-1.69,6.19,2.07,9.52,7.05,5.16L124.43,80.37z M129.23,99.61
		h-7.62V97.6c-1.02,0.31-1.71,1.22-2.72,1.69c-5.32,2.43-10.6-1.72-11.55-7.13c-1.92-10.82,5.64-17.19,15.53-17.83
		c2.19-0.14,7.57-0.03,9.56,0.64c0.34,0.11,0.49,0.3,0.48,0.66L129.23,99.61z"/>
	<path class="st0" d="M173.56,99.61h-7.48l-0.3-0.58l2.16-15.94c-0.76-4.9-5.76-0.64-7.63,1.24l-2.26,15.29h-7.91l3.67-24.99h7.62
		c0.24,0.43-0.47,2.89,0.14,2.87c5.76-5.07,14.4-4.58,14.51,4.72L173.56,99.61z"/>
	<path class="st0" d="M61.19,74.62h7.91l-3.81,24.99H57.8l0.28-2.87l-4.65,2.6c-16.01,3.78-7.97-16.22-7.78-24.71h7.48
		c0.12,0,0.47,0.45,0.41,0.69l-2.27,15.54c0.56,5.26,6.14,1.11,7.87-1.21L61.19,74.62z"/>
	<path class="st0" d="M193.32,84.96c0.63-7.78-6.08-5.93-7.34,0H193.32z M185.42,89.27c-0.26,7.99,9.49,4.87,13.83,2.87
		c-0.56,1.62-0.32,5.55-1.81,6.34c-2.37,1.25-6.43,1.62-9.07,1.42c-16.92-1.26-12.78-26.32,2.85-25.59
		c8.12,0.38,10.93,7.62,9.45,14.95H185.42z"/>
	<path class="st0" d="M143.07,74.62l-0.28,3.45c1.99-1.65,3.45-3.94,6.34-3.74c1.18,0.08,1.9,0.27,1.82,1.54
		c-0.11,1.92-0.89,4.26-1.11,6.22c-2.91-1.02-6.36,0.37-8.01,2.9c-1.29,4.28-0.97,9.69-2.16,13.89c-0.08,0.3-0.11,0.56-0.41,0.73
		h-7.48l3.67-24.99H143.07z"/>
</g>
</svg>
