<?xml version="1.0" encoding="utf-8"?>
<!-- Generator: Adobe Illustrator 29.8.3, SVG Export Plug-In . SVG Version: 9.03 Build 0)  -->
<svg version="1.0" id="Capa_1" xmlns="http://www.w3.org/2000/svg" xmlns:xlink="http://www.w3.org/1999/xlink" x="0px" y="0px"
	 viewBox="0 0 277.62 72.03" style="enable-background:new 0 0 277.62 72.03;" xml:space="preserve">
<style type="text/css">
	.st0{fill:#FFFFFF;}
</style>
<g>
	<path class="st0" d="M42.11,72.03c-0.2-1.61-2.82-3.87-2.35-5.37l39.46-63.8L42.11,72.03z"/>
	<path class="st0" d="M113.23,40.93h-6.39c-3.21,0-4.57,5.94-0.02,6.36C110.77,47.65,113.96,45.17,113.23,40.93 M116.66,49.82h-2.81
		V47.6c-1.2,0.36-1.89,1.57-3.12,2.06c-5.5,2.16-12.24-1.18-9.82-7.77c0.61-1.66,3.3-3.8,4.99-3.8h7.33
		c1.32-4.88-4.17-7.43-7.6-4.72c-1.58,1.25-0.49,3.89-4.27,2.67c-0.36-1.47,0.69-3.63,1.72-4.63c2.58-2.51,9.07-2.62,11.73-0.16
		c0.54,0.5,1.86,2.91,1.86,3.51V49.82z"/>
	<path class="st0" d="M150.97,40.93h-6.71c-0.34,0-1.89,0.89-2.2,1.25c-1.42,1.67-0.5,4.58,1.65,5.03
		C147.81,48.05,151.5,45.27,150.97,40.93 M154.09,49.82h-2.81V47.6c-1.29,0.45-1.71,1.51-3.12,2.05c-2.54,0.98-6.56,0.97-8.58-1.09
		c-2.07-2.11-1.98-6.97,0.32-8.9c0.41-0.34,3.11-1.58,3.44-1.58h7.17c1.01,0,0.02-3.5-0.33-4.1c-0.84-1.44-3.4-1.78-4.9-1.53
		c-2.99,0.49-3.26,3.48-3.86,3.69l-2.61,0.05c-0.86-7.34,11.17-8.77,14.3-3.92c0.18,0.28,0.99,2.03,0.99,2.17V49.82z"/>
	<polygon class="st0" points="88.63,49.77 79.85,23.8 83.56,23.83 90.61,44.74 97.6,23.99 101.06,23.48 92.49,49.5 	"/>
	<path class="st0" d="M236.86,32.79c-2.18,2.16-2.13,9.61-0.89,12.27c1.21,2.6,4.53,2.92,6.93,1.96c5.71-2.29,6.11-10.84,1.19-14.35
		C242.32,31.42,238.47,31.19,236.86,32.79 M247.36,45.69c-2.97,3.29-6.76,5.17-11.01,2.79c-3.93-2.19-3.99-10.31-2.81-14.15
		c1.95-6.35,10.68-6.03,13.66-0.7l0.48-3.48l1.55-0.01v22.05c0,0.4-1.05,2.26-1.4,2.7c-3.19,4.01-14.61,3.41-14.2-3.5l1.83,0.05
		c0.27,4.57,7.82,5,10.31,2.62c0.56-0.53,1.59-2.79,1.59-3.46V45.69z"/>
	<path class="st0" d="M37.43,64.09c-0.08-1.38-2.58-3.54-2.04-4.75l36.66-47.92L37.43,64.09z"/>
	<path class="st0" d="M160.02,23.8l16.5,0.03l0.03,1.87H162.2v9.52h12.01c0.64,0,0.64,2.22,0,2.22H162.2v10.47h14.66v1.9h-16.84
		V23.8z"/>
	<path class="st0" d="M275.43,40.3h-6.71c-1.27,0-3.47,0.94-4.06,2.22c-2.82,6.14,6.15,7.94,9.82,3.33
		C275.95,43.99,275.34,42.52,275.43,40.3 M277.62,49.82l-1.74-0.3l-0.14-2.56c-2.47,2.7-5.83,3.93-9.43,3.09
		c-5.1-1.18-5.78-8.22-1.5-10.56c0.78-0.43,3.12-1.09,3.91-1.09h6.71c0.29-3.6-0.18-6.32-4.2-6.68c-3.37-0.3-5.98,0.39-6.58,4.15
		l-2-0.02c-0.3-6.88,11.1-8.08,13.99-3.6c0.18,0.28,0.99,2.03,0.99,2.17V49.82z"/>
	<path class="st0" d="M214.92,38.71c0.31-5.47-2.64-7.81-7.88-6.9c-2.88,0.49-4.88,4.37-3.51,6.9H214.92z M203.06,40.61
		c-0.25,3.47,0.59,7.16,4.52,7.62c1.8,0.21,4.61,0.16,5.94-1.25c1.3-1.39,0.56-3.46,3.26-2.87c0.34,6.81-10.41,7.86-13.93,4.02
		c-2.54-2.77-2.55-11.08-1.1-14.39c2.58-5.92,13.2-5.48,14.89,1.15c0.37,1.46,0.84,4.53-0.02,5.73H203.06z"/>
	<path class="st0" d="M60.3,23.91C52.04,33.98,43.91,44.8,35.23,54.64c-0.33,0.37-1.12,1.36-1.37,1.54c-1.2,0.9-1.89-2.4-2.66-3.18
		l38.36-40.47c0.76-0.29,0.2,0.4,0,0.64c-0.54,0.67-1.31,1.23-1.87,1.91C65.26,18.03,63.09,21.35,60.3,23.91"/>
	<path class="st0" d="M181.23,30.14h1.87l0.15,3.49c1.86-3.83,8.49-5.54,11.39-2.29c0.42,0.46,1.55,2.88,1.55,3.41v15.07h-2.18
		V35.06c0-0.12-0.64-1.49-0.79-1.73c-1.55-2.32-4.96-2.04-7.01-0.5c-0.67,0.5-2.8,3.14-2.8,3.82v13.17h-2.18V30.14z"/>
	<polygon class="st0" points="64.26,16.5 29.16,49.51 27.57,46.98 27.89,46.32 	"/>
	<rect x="121.96" y="21.89" class="st0" width="3.12" height="27.93"/>
	<path class="st0" d="M57.08,19.99L25.87,42.36c-0.95,0.92-2.39-2.07-2.17-2.38L57.08,19.99z"/>
	<path class="st0" d="M134.13,49.82h-3.43V30.3l0.52-0.43c0.39-0.09,0.8-0.07,1.2-0.07c0.64,0,1.32-0.11,1.72,0.49V49.82z"/>
	<path class="st0" d="M221.78,30.14h1.87l0,3.02l0.62,0.16c0.92-3.05,4.06-3.76,6.87-3.49l-0.3,2.08c-2.83-0.18-4.65,0.61-5.9,3.2
		c-0.16,0.33-0.97,2.36-0.97,2.5v12.21c-0.76-0.02-1.68,0.24-2.18-0.48V30.14z"/>
	<path class="st0" d="M52.09,20.63l-30.55,15.1c-0.6,0.1-1.81-1.52-1.44-2.1L52.09,20.63z"/>
	<rect x="255.47" y="30.14" class="st0" width="2.18" height="19.68"/>
	<polygon class="st0" points="46.47,20.63 17.27,28.88 16.9,28.83 16.22,27.44 	"/>
	<path class="st0" d="M43.98,19.04l-3.9,0.63c-1.03,0.08-2.08-0.08-3.11,0.01c-7.55,0.62-15.21,2.03-22.77,2.24
		c-1.14,0.03-1.56-0.02-2.02-1.14l1.69-0.47L43.98,19.04z"/>
	<path class="st0" d="M21.21,9.2c0.05,0.63-0.9,0.18-1.19,0.1C13.91,7.45,7.63,3.77,1.46,1.84L0,0L21.21,9.2z"/>
	<path class="st0" d="M30.88,16.5l-2.02,0.31L9.52,15.22c-0.57-0.11-1.18-0.58-1.1-1.26L30.88,16.5z"/>
	<path class="st0" d="M24.02,12.69l-1.01,0.24c-5.41-1.68-11.42-2.48-16.77-4.21C5.22,8.39,4.35,8.33,4.37,6.98L24.02,12.69z"/>
	<polygon class="st0" points="134.13,22.52 134.13,26.34 130.71,26.32 130.7,22.52 	"/>
	<path class="st0" d="M261.08,21.9c-2.12,1.73-3.5,5.7-6.55,5.07l3.74-4.91L261.08,21.9z"/>
</g>
</svg>
