<?xml version="1.0" encoding="utf-8"?>
<!-- Generator: Adobe Illustrator 29.8.3, SVG Export Plug-In . SVG Version: 9.03 Build 0)  -->
<svg version="1.0" id="Capa_1" xmlns="http://www.w3.org/2000/svg" xmlns:xlink="http://www.w3.org/1999/xlink" x="0px" y="0px"
	 viewBox="0 0 169.58 57.41" style="enable-background:new 0 0 169.58 57.41;" xml:space="preserve">
<style type="text/css">
	.st0{fill:#FFFFFF;}
</style>
<g>
	<path class="st0" d="M169.58,48.94c-0.26-0.04-0.82,0.09-1-0.07l-2.29-3.35v3.32c0,0.01-0.09,0.1-0.1,0.1h-1.07v-5.52h1l2.18,3.24
		l0.18,0.11v-3.35h1.1V48.94z"/>
	<path class="st0" d="M4.94,6.21l6.27,23.54l6.27-23.54l4.95,0.04l6.39,23.43L34.9,6.21h5.04l-8.67,32.41l-5.16,0.01L20,15.15
		l-6.33,23.47H8.77c-0.08-0.02-0.07-0.2-0.11-0.28c-0.35-0.69-0.55-2.02-0.77-2.85c-0.39-1.47-0.87-3.09-1.23-4.59
		c-0.02-0.05-0.13-0.04-0.13-0.08c-0.03-0.51-0.1-0.37-0.15-0.63c-0.31-1.51-0.77-3-1.2-4.45c-0.35-1.21-0.58-2.53-0.9-3.73
		c-0.3-1.08-0.66-2.23-0.92-3.34c-0.12-0.54-0.44-1.22-0.55-1.74C2.67,16.28,2.54,15.58,2.38,15c-0.43-1.53-0.92-3.02-1.31-4.59
		C0.8,9.37,0.56,8.36,0.31,7.31C0.22,6.94,0.08,6.58,0,6.21H4.94z"/>
	<path class="st0" d="M115.68,22.05c-1.36,1.85-3.07,3.92-4.59,5.65c-2.03,2.33-4.25,4.62-6.46,6.77c-2.35,2.28-4.87,4.4-7.31,6.58
		c-1.57,1.15-3.07,2.43-4.63,3.6c-5.6,4.21-12.14,8.41-18.68,10.91c-5.54,2.11-15.7,4.36-14.22-5.26c0.64-4.15,3.15-8.22,5.35-11.69
		h2.26c-1.41,2.3-2.88,4.6-3.77,7.18c-3.07,8.95,4.4,8.05,10.05,5.89c6.52-2.5,13.21-7.08,18.72-11.4c1.41-1.11,3.2-2.44,4.47-3.68
		c0.14-0.13,0.36-0.31,0.39-0.49c0.15,0.02,0.2-0.05,0.29-0.13c1.68-1.38,3.22-2.98,4.75-4.47c2.97-2.9,5.57-5.64,8.21-8.88
		c0.68-0.83,1.39-1.63,2.03-2.5c0.35-0.47,1.01-1.27,1.26-1.75c0.05-0.09,0.09-0.18,0.08-0.29c0.15,0.01,0.17-0.1,0.23-0.19
		c3.52-4.7,9.77-17.16-1.93-14.78c-6.8,1.39-12.98,5.92-18.68,9.66c-0.1,0.07-0.17,0.13-0.3,0.11c0-0.77,0-1.53,0-2.3
		c3.91-2.66,7.92-5.19,12.19-7.22c3.86-1.84,11.75-4.95,15.72-2.47c1.4,0.87,2.1,2.35,2.2,4C123.66,10.13,118.69,17.97,115.68,22.05
		"/>
	<path class="st0" d="M47.31,15.08c-0.01,0.57-0.08,1.14-0.07,1.71c0.25,0.04,0.44-0.06,0.66-0.14c2.25-0.78,4.53-1.28,7-1.11
		c4.34,0.3,5.57,3.75,5.79,7.66v15.42h-4.98l0-14.3c-0.08-0.3-0.04-0.6-0.08-0.9c-0.09-0.69-0.46-1.8-0.95-2.32
		c-0.08-0.08-0.33-0.29-0.43-0.35c-1.52-0.99-3.59-0.81-5.32-0.44c-0.55,0.11-1.08,0.3-1.62,0.43v17.88h-4.98V6.34l4.98-0.46
		c-0.03,3.02,0.05,6.05,0,9.07C47.31,14.98,47.31,15.06,47.31,15.08"/>
	<path class="st0" d="M150.96,19.51c-4.25,0.34-4.68,5.04-4.58,8.5c0.1,3.46,0.93,7.28,5.14,7.07c4.76-0.23,4.8-5.78,4.62-9.44
		C155.97,22.24,154.87,19.19,150.96,19.51 M156.55,37.99c-2.43,1.26-5.79,1.35-8.44,0.74c-2.07-0.48-3.51-1.41-4.81-3.16
		c-0.32-0.42-0.94-1.5-1.09-2.01c-1.18-4.01-1.39-9.97,0.67-13.72c1.99-3.65,5.79-4.52,9.67-4.29c6.04,0.35,8.43,4.56,8.7,10.28
		C161.45,30.28,160.88,35.74,156.55,37.99"/>
	<path class="st0" d="M128.47,19.51c-3.53,0.28-4.43,3.42-4.58,6.52c-0.18,3.81,0.11,9.29,5.14,9.05c4.49-0.22,4.77-5.32,4.62-8.85
		C133.51,22.73,132.69,19.18,128.47,19.51 M136.4,36.09c-2.28,2.85-6.38,3.28-9.76,2.84c-3.24-0.42-5.53-2.1-6.81-5.23
		c-1.03-2.51-1.17-5.87-0.92-8.66c0.48-5.44,3.16-9.19,8.88-9.5c6.97-0.38,10.36,2.87,10.89,9.83
		C138.95,28.8,138.61,33.34,136.4,36.09"/>
	<path class="st0" d="M93.19,12.91c0.01,8.57,0,17.14,0,25.71h-5.04V6.28l5.04-0.39c0,1.58,0,3.16,0,4.73
		C93.19,11.38,93.19,12.15,93.19,12.91"/>
	<polygon class="st0" points="169.52,5.95 169.52,38.62 164.54,38.62 164.54,6.37 	"/>
	<path class="st0" d="M115.68,22.05c1.24,6.21,0.69,15.51-6.97,16.75c-1.6,0.26-3.21,0.14-4.82-0.05c-0.53-0.07-1.06-0.2-1.59-0.26
		v10.45l-4.98,0.53v-8.41c2.44-2.17,4.95-4.29,7.31-6.58c0.99-0.03,2,0.1,2.97-0.16c2.8-0.75,3.35-4.09,3.49-6.61
		C112.61,25.97,114.32,23.91,115.68,22.05"/>
	<path class="st0" d="M113.87,18.11c0.02,0.1-0.03,0.2-0.07,0.29c-0.25,0.48-0.91,1.28-1.26,1.74c-0.64,0.87-1.35,1.67-2.03,2.51
		c-0.5-1.2-1.6-1.86-2.83-2.08c-1.8-0.33-3.65-0.07-5.37,0.52l-0.01,10.44c-1.53,1.5-3.07,3.1-4.75,4.47
		c-0.1,0.08-0.15,0.15-0.3,0.13V15.81h3.78c0.24,0.46,0.27,1.05,0.42,1.55c0.02,0.07-0.05,0.11,0.1,0.1
		c0.17-0.02,0.97-0.49,1.22-0.6c2.89-1.26,6.42-2.1,9.3-0.37C112.44,16.69,113.8,17.74,113.87,18.11"/>
	<path class="st0" d="M86.02,20.54c-2.24-0.39-4.66-0.5-6.66,0.76v17.32h-4.97V15.81h3.43l0.64,1.87c0.06,0.09,0.31,0.04,0.39,0.01
		l1.47-1.08c1.39-0.77,3.88-1.25,5.48-1.06c0.07,0.01,0.22,0.03,0.22,0.1V20.54z"/>
	<polygon class="st0" points="65.14,38.62 65.14,15.87 70.12,15.87 70.12,38.62 67.41,38.62 	"/>
	<path class="st0" d="M66.27,13.02c-0.26-0.12-0.93-0.59-1.1-0.85c-0.63-1-0.61-2.85-0.25-3.99C64.98,8,64.9,8.13,65.01,7.94
		c0.49-0.83,1.08-1.18,2.04-1.27c1.49-0.14,3.04,0.16,3.43,1.84c0.37,1.62,0.2,3.89-1.62,4.47C68.26,13.18,66.83,13.29,66.27,13.02"
		/>
	<path class="st0" d="M119.15,44.29c-1.01,0.18-1.03,1.72-0.95,2.51c0.07,0.69,0.52,1.31,1.26,1.28c1.23-0.03,1.28-1.53,1.2-2.47
		C120.57,44.69,120.14,44.12,119.15,44.29 M121.22,43.97c1,1.02,0.95,3.97-0.41,4.7c-0.6,0.32-1.58,0.34-2.24,0.27
		c-0.3-0.03-1.09-0.66-1.28-0.93c-0.39-0.57-0.36-2.61-0.17-3.29c0.01-0.05,0.47-0.69,0.55-0.77
		C118.42,43.14,120.43,43.17,121.22,43.97"/>
	<path class="st0" d="M160.84,44.29c-1.22,0.21-1.3,3.27-0.17,3.7c1.45,0.54,1.81-0.97,1.74-2.1
		C162.35,44.87,161.97,44.09,160.84,44.29 M162.9,48.39c-0.63,0.61-2.04,0.68-2.84,0.48c-0.03-0.01-0.58-0.33-0.61-0.35
		c-1.01-0.82-1.01-3.26-0.33-4.27c0.79-1.18,3.15-1.23,3.98-0.07C163.82,45.19,163.81,47.51,162.9,48.39"/>
	<path class="st0" d="M135.89,44.29c-1.01,0.17-1.03,1.72-0.95,2.51c0.07,0.69,0.53,1.3,1.26,1.28c1.23-0.03,1.28-1.53,1.2-2.47
		C137.31,44.69,136.88,44.12,135.89,44.29 M135.03,48.85c-0.02-0.01-0.3-0.18-0.32-0.2c-0.11-0.08-0.74-0.76-0.78-0.84
		c-0.01-0.03,0.04-0.11,0.02-0.18c-0.3-0.94-0.37-2.14,0.04-3.05c0.29-0.65,0.66-0.96,1.34-1.13c0.74-0.18,1.8-0.12,2.42,0.37
		c1.3,1.01,1.23,4.28-0.42,4.96C136.87,48.97,135.46,49.05,135.03,48.85"/>
	<path class="st0" d="M124.54,46.05c0.61,0.04,1.41,0.03,1.48-0.77c0.03-0.31-0.21-0.88-0.55-0.88h-0.94V46.05z M125.21,43.42
		c0.34,0.02,0.94,0.11,1.24,0.25c0.38,0.18,0.69,0.61,0.73,1.03c0.09,0.88,0,1.41-0.78,1.83c-0.11,0.06-0.34,0.03-0.32,0.24
		c0.48,0,0.79,0.68,0.98,1.07c0.15,0.31,0.32,0.7,0.38,1.03h-1.2c-0.11,0-0.19-0.45-0.23-0.54c-0.12-0.28-0.16-0.44-0.27-0.73
		c-0.06-0.17-0.5-0.68-0.62-0.7c-0.17-0.04-0.41,0.02-0.6,0v1.97h-1.1v-5.46C124.02,43.45,124.64,43.38,125.21,43.42"/>
	<path class="st0" d="M141.28,46.05c0.62,0.04,1.41,0.03,1.48-0.77c0.03-0.31-0.21-0.88-0.55-0.88h-0.93V46.05z M142.02,43.42
		c0.3,0.02,0.91,0.13,1.18,0.25c0.87,0.39,1.01,2.02,0.34,2.61c-0.11,0.1-0.82,0.37-0.71,0.49c0.26-0.01,0.46,0.21,0.61,0.4
		c0.17,0.22,0.64,1.17,0.72,1.44c0.02,0.09,0.04,0.17,0.03,0.27h-1.29c-0.01,0-0.03-0.25-0.07-0.34c-0.09-0.22-0.24-0.5-0.33-0.72
		c-0.29-0.68-0.29-1.01-1.21-0.9v1.97h-1.1v-5.46C140.78,43.45,141.42,43.37,142.02,43.42"/>
	<path class="st0" d="M146.96,46.9h1.29c-0.2-0.64-0.32-1.42-0.55-2.04c-0.03-0.08,0-0.16-0.13-0.13L146.96,46.9z M150.19,48.88
		h-1.29c-0.01,0,0-0.17-0.05-0.25c-0.05-0.08-0.13-0.09-0.15-0.13c-0.11-0.24-0.2-0.55-0.19-0.81l-1.75,0.04l-0.41,1.14h-1.2
		c0.08-0.31,0.19-0.61,0.3-0.92c0.44-1.33,1-2.67,1.39-4.09c0.18-0.08,0.13-0.38,0.3-0.43c0.11-0.04,0.98-0.03,1.06,0.02l1.97,5.16
		L150.19,48.88z"/>
	<path class="st0" d="M130.03,46.18c0.7,0.02,1.39,0.08,1.43-0.82c0.04-1.03-0.62-0.99-1.43-0.96V46.18z M130.58,43.42
		c0.39,0.03,1.02,0.12,1.38,0.3c0.83,0.43,0.9,1.76,0.47,2.51c-0.19,0.33-0.78,0.74-1.14,0.74h-1.26v1.91h-1.16v-5.46
		C129.43,43.45,130.02,43.38,130.58,43.42"/>
	<path class="st0" d="M115.75,48.81c-0.71,0.11-1.65,0.23-2.36,0.14c-0.11-0.01-0.09-0.11-0.14-0.13c-0.18-0.06-0.5-0.11-0.65-0.19
		c-0.56-0.3-0.88-1.34-0.92-1.95c-0.13-1.91,0.58-3.16,2.56-3.31c0.31-0.02,1.07-0.01,1.34,0.14c0.22,0.11,0.07,0.74,0.11,0.97
		c-0.7-0.05-2.04-0.3-2.52,0.36c-0.36,0.5-0.38,1.82-0.14,2.38c0.45,1.05,1.84,0.76,2.73,0.61V48.81z"/>
	<polygon class="st0" points="154.85,43.42 154.85,44.4 153.36,44.34 153.36,48.88 152.2,48.88 152.2,44.34 150.71,44.4 
		150.71,43.42 	"/>
	<rect x="156.14" y="43.42" class="st0" width="1.16" height="5.46"/>
	<path class="st0" d="M47.31,15.08c0-0.02,0-0.11,0-0.13l0.04,0.08L47.31,15.08z"/>
</g>
</svg>
